<svg width="66" height="66" viewBox="0 0 66 66" fill="none" xmlns="http://www.w3.org/2000/svg">
<path d="M28.8633 12.1875V52H22.0547V12.1875H28.8633ZM41.3594 12.1875V17.6562H9.66797V12.1875H41.3594Z" fill="#7B4EFA"/>
<path d="M57.0391 26.6406V30.7656H42.7422V26.6406H57.0391ZM46.8672 20.4297H52.5156V44.9922C52.5156 45.7734 52.625 46.375 52.8438 46.7969C53.0781 47.2031 53.3984 47.4766 53.8047 47.6172C54.2109 47.7578 54.6875 47.8281 55.2344 47.8281C55.625 47.8281 56 47.8047 56.3594 47.7578C56.7188 47.7109 57.0078 47.6641 57.2266 47.6172L57.25 51.9297C56.7812 52.0703 56.2344 52.1953 55.6094 52.3047C55 52.4141 54.2969 52.4688 53.5 52.4688C52.2031 52.4688 51.0547 52.2422 50.0547 51.7891C49.0547 51.3203 48.2734 50.5625 47.7109 49.5156C47.1484 48.4688 46.8672 47.0781 46.8672 45.3438V20.4297Z" fill="#7B4EFA" fill-opacity="0.24"/>
</svg>
