<svg width="66" height="66" viewBox="0 0 66 66" fill="none" xmlns="http://www.w3.org/2000/svg">
<path d="M7.61035 30.2599L18.1044 26.96L22.6557 34.6664V57.0773L7.61035 60.9406V29.2582V30.2599ZM33.0003 45.0909C33.8067 45.0893 35.5457 44.4545 36.8184 43.1818C38.0912 41.9091 40.5248 38.824 40.5248 38.824V60.9406L25.4777 57.0773V38.8206L28.5457 42.5454C29.1821 43.1818 30.5599 44.1745 31.0912 44.4545C31.8046 44.8305 32.1938 45.0925 33.0003 45.0909ZM47.3517 28.7627L58.3905 25.3966V57.0773L43.3451 60.9406V34.6681L47.3517 28.7627Z" fill="#7B4EFA" fill-opacity="0.12"/>
<path d="M33 6C39.8531 6.00025 45.4081 11.653 45.4082 18.626C45.4082 19.7329 45.2678 20.807 45.0049 21.8301C43.3042 28.9092 36.9909 36.0436 34.3779 38.6426C33.7765 39.2403 32.533 39.2404 31.9316 38.6426C29.3186 36.0436 22.6938 28.9093 20.9932 21.8301C20.7302 20.8071 20.5908 19.7328 20.5908 18.626C20.5909 11.6528 26.1467 6 33 6ZM33 10.4092C28.5817 10.4092 25 13.9909 25 18.4092C25.0001 22.8274 28.5818 26.4092 33 26.4092C37.4182 26.4092 40.9999 22.8274 41 18.4092C41 13.9909 37.4183 10.4092 33 10.4092Z" fill="#7B4EFA"/>
</svg>
