<svg width="104" height="104" viewBox="0 0 104 104" fill="none" xmlns="http://www.w3.org/2000/svg">
<path d="M51.675 94.3313V54.1938L91.6501 37.5376V79.0563L51.675 94.3313Z" fill="#E5E6EB"/>
<path d="M12.3499 78.975L51.6749 94.3312V54.1937L11.6187 37.375L12.3499 78.975Z" fill="#C9CDD4"/>
<path d="M31.7895 25.4571L31.0947 17.4816L34 19.5061L31.7895 25.4571ZM27.1158 16.5L30.7158 26.5L22.7579 20.181L27.1158 16.5ZM22 22.819L28.8842 26.5L22.7579 25.8252L22 22.819Z" fill="#7B4EFA"/>
<path d="M51.6749 54.1937L41.2749 75.8875L1.4624 59.3937L11.6187 37.375L51.6749 54.1937Z" fill="#F2F3F5"/>
<path d="M51.6749 22.1001L11.6187 37.3751L51.6749 54.1126V22.1001Z" fill="#E5E6EB"/>
<path d="M52 54.1562L63.1313 75.7687L103.106 59.3562L91.8937 37.5L52 54.1562Z" fill="#F2F3F5"/>
<path d="M91.6501 37.5376L51.675 22.1001V54.1126L91.6501 37.5376Z" fill="#C9CDD4"/>
<path fill-rule="evenodd" clip-rule="evenodd" d="M50.5504 48.2707C51.6769 48.1025 52.7272 47.835 53.7016 47.4685L53.8473 47.4128L54.081 48.1676C53.0385 48.5734 51.92 48.8708 50.7261 49.0603L50.5551 49.0867L50.5504 48.2707ZM57.157 45.5189L57.3307 45.4918L57.5091 45.4621V45.4621L57.516 45.4607L57.9559 45.904C57.0712 46.6914 56.0878 47.3439 55.0076 47.8606L54.872 47.9245L54.5534 47.1771C55.4641 46.7542 56.2991 46.2289 57.0596 45.6004L57.157 45.5189ZM46.3899 48.4858C47.4984 48.5277 48.5528 48.4985 49.553 48.3986L49.7399 48.379L49.6885 49.1949C48.6481 49.3088 47.5553 49.3485 46.4101 49.3142L46.1948 49.3069L46.3899 48.4858ZM63.179 42.7899L63.4859 43.547C62.4023 44.0325 61.3363 44.4347 60.2923 44.7542L60.0968 44.8131L59.9199 44.0078C60.9151 43.7122 61.9336 43.3373 62.9713 42.882L63.179 42.7899ZM59.9744 42.0184L60.7403 42.3415C60.2932 43.1293 59.7955 43.8502 59.247 44.5038L59.2391 44.5128L59.3299 45.0691C58.7743 45.2135 58.2267 45.334 57.6883 45.4308L57.516 45.4608L57.381 45.3249C57.3106 45.3875 57.2395 45.4492 57.1678 45.51L57.1569 45.5189L57.1529 45.5197C56.7388 45.5827 56.3305 45.6314 55.9284 45.6659L55.7564 45.6798L55.8032 44.8334C56.5443 44.777 57.3095 44.6691 58.0956 44.5086L58.1803 44.4909L58.2245 44.4435C58.8437 43.7692 59.4011 43.0062 59.8967 42.1538L59.9744 42.0184ZM58.1802 44.4907L58.1262 44.5491L58.0269 44.6533V44.6533L58.6472 45.1705C58.8191 44.9922 58.9865 44.8081 59.1496 44.6182L59.2391 44.5126L59.1969 44.2527C58.8874 44.3331 58.5808 44.4057 58.2773 44.4705L58.1802 44.4907ZM67.0102 40.7354L67.4022 41.3658C66.4378 41.9589 65.4833 42.4911 64.541 42.9626L64.3238 43.0704L64.0229 42.3897C64.934 41.9418 65.8585 41.4345 66.7941 40.8674L67.0102 40.7354ZM42.2279 47.7777C43.2826 47.999 44.2965 48.1653 45.2697 48.2767L45.4776 48.2997L45.2841 49.1371C44.2884 49.0306 43.253 48.8679 42.178 48.6491L41.947 48.6014L42.2279 47.7777ZM51.7262 44.5259C52.6764 44.7451 53.7166 44.848 54.8292 44.8274L54.9814 44.8239L54.8729 45.6628C53.6762 45.6968 52.552 45.5977 51.5199 45.3725L51.3858 45.3424L51.7262 44.5259ZM70.7766 38.1849L71.2705 38.7708C70.3419 39.4705 69.419 40.1193 68.5032 40.7174L68.2744 40.8659L67.8502 40.2314C68.7426 39.6561 69.6428 39.0307 70.5498 38.3549L70.7766 38.1849ZM38.2126 46.8786C39.2193 47.1779 40.1956 47.4358 41.1413 47.6523L41.3771 47.7056L41.0696 48.526C40.1106 48.3122 39.1218 48.0567 38.103 47.7594L37.8477 47.6841L38.2126 46.8786ZM74.1837 35.4405L74.7444 35.9739C73.8997 36.7218 73.0576 37.4278 72.2189 38.0921L71.9902 38.2722L71.4811 37.6959C72.296 37.0573 73.1149 36.378 73.937 35.6578L74.1837 35.4405ZM48.2272 42.8772C48.9048 43.4595 49.7407 43.9321 50.7052 44.2707L50.8129 44.3078L50.4354 45.0825C49.371 44.7234 48.441 44.2138 47.6797 43.5789L47.5988 43.5104L48.2272 42.8772ZM61.7269 38.215L62.5939 38.3381C62.2346 39.4255 61.8158 40.4344 61.3369 41.3647L61.2518 41.5281L60.4449 41.2643C60.9056 40.391 61.3113 39.4393 61.6618 38.4091L61.7269 38.215ZM77.3278 32.3244L77.9557 32.8375C77.1917 33.6234 76.4281 34.374 75.6651 35.0893L75.4109 35.3264L74.8221 34.7753C75.5727 34.079 76.3245 33.3477 77.077 32.5812L77.3278 32.3244ZM34.4235 45.5935C35.3658 45.9274 36.2851 46.2301 37.1813 46.5017L37.4495 46.5822L37.0653 47.3701C36.1614 47.1011 35.2348 46.8007 34.2855 46.469L34 46.3685L34.4235 45.5935ZM45.6596 40.0871L46.4967 39.8699C46.6662 40.7456 47.0772 41.571 47.7044 42.2919L47.7679 42.3636L47.1 42.922C46.3749 42.1152 45.89 41.1809 45.6786 40.1811L45.6596 40.0871ZM62.6552 34.2495L62.712 34.2505L63.5563 34.1478L63.5553 34.238L63.516 34.479C63.3517 35.4632 63.1515 36.399 62.9151 37.2865L62.8599 37.4905L61.984 37.3835C62.2355 36.4687 62.4472 35.4977 62.619 34.4705L62.6503 34.2788L62.6505 34.258L62.6537 34.2576L62.6552 34.2495ZM80.3022 29.1111L80.9619 29.5667C80.252 30.372 79.5417 31.1479 78.8316 31.8945L78.5653 32.1731L77.9362 31.6841C78.637 30.9546 79.3381 30.1959 80.0393 29.4079L80.3022 29.1111ZM62.6536 34.2574L62.6502 34.2786L62.6501 34.3056L63.1029 34.2577L62.7119 34.2503L62.6536 34.2574ZM46.3177 35.8973L47.1192 36.1439C46.8894 36.6063 46.7014 37.08 46.5576 37.5628C46.4155 38.0402 46.3425 38.5142 46.3376 38.9811L46.3377 39.081L45.446 39.2116C45.4399 38.6349 45.5242 38.0482 45.6997 37.4586C45.8437 36.9754 46.0277 36.5006 46.2499 36.0363L46.3177 35.8973ZM62.2753 30.3825C62.9445 31.1177 63.3469 32.0882 63.4574 33.276L63.4654 33.3678L62.5361 33.5851C62.4519 32.5288 62.1177 31.6802 61.56 31.0415L61.5116 30.9872L62.2753 30.3825ZM49.1842 32.2467L49.7645 32.8045C48.9316 33.5539 48.2222 34.3858 47.6659 35.2754L47.5972 35.3869L46.823 35.0619C47.4181 34.0824 48.1803 33.168 49.0761 32.3451L49.1842 32.2467ZM58.2587 28.7408C59.5206 28.8101 60.6207 29.1575 61.4785 29.7796L61.5457 29.8293L60.9137 30.5095C60.1964 29.969 59.2615 29.6576 58.1698 29.5832L58.0731 29.5773L58.2587 28.7408ZM52.9763 29.7054L53.2512 30.42C52.2639 30.8649 51.3128 31.4297 50.4481 32.0879L50.3251 32.1825L49.8206 31.6064C50.7467 30.885 51.7678 30.2643 52.8311 29.7718L52.9763 29.7054ZM53.8876 29.3836C55.0655 28.951 56.2487 28.6923 57.3624 28.6264L57.4859 28.6199L57.4023 29.4583C56.3994 29.5049 55.3224 29.7281 54.2423 30.112L54.1126 30.1588L53.8876 29.3836Z" fill="#7B4EFA"/>
<path fill-rule="evenodd" clip-rule="evenodd" d="M88.2686 12.5L91 27.7879L85.5013 27.3021L83.6552 31.5L82.593 28.1695L82.2766 28.5139L81.9602 28.8559L81.0172 28.2683C81.5753 27.6674 82.1334 27.0545 82.6913 26.4295L87.2896 15.0827L79.9637 27.0566L75 26.4656L88.2686 12.5Z" fill="#7B4EFA"/>
</svg>
