<svg fill="none" xmlns="http://www.w3.org/2000/svg" viewBox="0 0 200 160" class="design-iconfont">
  <rect x="2" y="34" width="172" height="115" rx="6" fill="url(#asiipqwtr__paint0_linear_1289_325185)"/>
  <g filter="url(#asiipqwtr__filter0_b_1289_325185)">
    <rect x="42" y="62" width="120" height="76" rx="4" fill="#fff" fill-opacity=".9"/>
  </g>
  <rect x="14" y="89" width="16" height="3" rx="1.5" fill="#A7A0BB"/>
  <rect x="14" y="95" width="16" height="3" rx="1.5" fill="#A7A0BB"/>
  <rect x="14" y="101" width="16" height="3" rx="1.5" fill="#A7A0BB"/>
  <path d="M2 40C2 36.6863 4.68629 34 8 34H170C172.209 34 174 35.7909 174 38V50H2V40Z" fill="#524574"/>
  <path d="M102 92.5C106.14 92.5 109.5 95.86 109.5 100C109.5 100.975 109.305 101.89 108.96 102.745L113.34 107.125C115.605 105.235 117.39 102.79 118.485 100C115.89 93.415 109.485 88.75 101.985 88.75C99.885 88.75 97.875 89.125 96.015 89.8L99.255 93.04C100.11 92.695 101.025 92.5 102 92.5ZM87 88.405L91.11 92.515C88.62 94.45 86.67 97.03 85.5 100C88.095 106.585 94.5 111.25 102 111.25C104.325 111.25 106.545 110.8 108.57 109.99L109.2 110.62L113.595 115L115.5 113.095L88.905 86.5L87 88.405ZM95.295 96.7L97.62 99.025C97.545 99.34 97.5 99.67 97.5 100C97.5 102.49 99.51 104.5 102 104.5C102.33 104.5 102.66 104.455 102.975 104.38L105.3 106.705C104.295 107.2 103.185 107.5 102 107.5C97.86 107.5 94.5 104.14 94.5 100C94.5 98.815 94.8 97.705 95.295 96.7ZM101.76 95.53L106.485 100.255L106.515 100.015C106.515 97.525 104.505 95.515 102.015 95.515L101.76 95.53Z" fill="#524574"/>
  <path d="M22 63.6667C17.4 63.6667 13.6666 67.4 13.6666 72C13.6666 76.6 17.4 80.3333 22 80.3333C26.6 80.3333 30.3333 76.6 30.3333 72C30.3333 67.4 26.6 63.6667 22 63.6667ZM22 67C23.6083 67 24.9166 68.3083 24.9166 69.9167C24.9166 71.525 23.6083 72.8333 22 72.8333C20.3916 72.8333 19.0833 71.525 19.0833 69.9167C19.0833 68.3083 20.3916 67 22 67ZM22 78.6667C20.3083 78.6667 18.3083 77.9833 16.8833 76.2667C18.2916 75.1667 20.0666 74.5 22 74.5C23.9333 74.5 25.7083 75.1667 27.1166 76.2667C25.6916 77.9833 23.6916 78.6667 22 78.6667Z" fill="#A7A0BB"/>
  <path d="M7 42C7 42.7957 7.31607 43.5587 7.87868 44.1213C8.44129 44.6839 9.20435 45 10 45C10.7957 45 11.5587 44.6839 12.1213 44.1213C12.6839 43.5587 13 42.7957 13 42C13 41.2044 12.6839 40.4413 12.1213 39.8787C11.5587 39.3161 10.7957 39 10 39C9.20435 39 8.44129 39.3161 7.87868 39.8787C7.31607 40.4413 7 41.2044 7 42Z" fill="#fff"/>
  <path d="M17 42C17 42.394 17.0776 42.7841 17.2284 43.1481C17.3791 43.512 17.6001 43.8427 17.8787 44.1213C18.1573 44.3999 18.488 44.6209 18.852 44.7716C19.2159 44.9224 19.606 45 20 45C20.394 45 20.7841 44.9224 21.1481 44.7716C21.512 44.6209 21.8427 44.3999 22.1213 44.1213C22.3999 43.8427 22.6209 43.512 22.7716 43.1481C22.9224 42.7841 23 42.394 23 42C23 41.606 22.9224 41.2159 22.7716 40.852C22.6209 40.488 22.3999 40.1573 22.1213 39.8787C21.8427 39.6001 21.512 39.3791 21.1481 39.2284C20.7841 39.0776 20.394 39 20 39C19.606 39 19.2159 39.0776 18.852 39.2284C18.488 39.3791 18.1573 39.6001 17.8787 39.8787C17.6001 40.1573 17.3791 40.488 17.2284 40.852C17.0776 41.2159 17 41.606 17 42Z" fill="#fff"/>
  <path d="M27 42C27 42.7957 27.3161 43.5587 27.8787 44.1213C28.4413 44.6839 29.2043 45 30 45C30.7956 45 31.5587 44.6839 32.1213 44.1213C32.6839 43.5587 33 42.7957 33 42C33 41.2044 32.6839 40.4413 32.1213 39.8787C31.5587 39.3161 30.7956 39 30 39C29.2043 39 28.4413 39.3161 27.8787 39.8787C27.3161 40.4413 27 41.2044 27 42Z" fill="#fff"/>
  <path d="M150 33.9998C150 47.2543 160.745 58 174 58C187.254 58 198 47.2548 198 33.9998C198 20.7452 187.254 10 174 10C160.745 10 150 20.7452 150 33.9998Z" fill="#7B4EFA"/>
  <path d="M182 28.6667H180.667V26C180.667 22.32 177.68 19.3333 174 19.3333C170.32 19.3333 167.333 22.32 167.333 26V28.6667H166C164.533 28.6667 163.333 29.8667 163.333 31.3333V44.6667C163.333 46.1333 164.533 47.3333 166 47.3333H182C183.467 47.3333 184.667 46.1333 184.667 44.6667V31.3333C184.667 29.8667 183.467 28.6667 182 28.6667ZM174 40.6667C172.533 40.6667 171.333 39.4667 171.333 38C171.333 36.5333 172.533 35.3333 174 35.3333C175.467 35.3333 176.667 36.5333 176.667 38C176.667 39.4667 175.467 40.6667 174 40.6667ZM178.133 28.6667H169.867V26C169.867 23.72 171.72 21.8667 174 21.8667C176.28 21.8667 178.133 23.72 178.133 26V28.6667Z" fill="#fff"/>
  <defs>
    <linearGradient id="asiipqwtr__paint0_linear_1289_325185" x1="88" y1="34" x2="88" y2="149" gradientUnits="userSpaceOnUse">
      <stop stop-color="#E5E6EB"/>
      <stop offset="1" stop-color="#E1DFE8"/>
    </linearGradient>
    <filter id="asiipqwtr__filter0_b_1289_325185" x="38" y="58" width="128" height="84" filterUnits="userSpaceOnUse" color-interpolation-filters="sRGB">
      <feFlood flood-opacity="0" result="BackgroundImageFix"/>
      <feGaussianBlur in="BackgroundImageFix" stdDeviation="2"/>
      <feComposite in2="SourceAlpha" operator="in" result="effect1_backgroundBlur_1289_325185"/>
      <feBlend in="SourceGraphic" in2="effect1_backgroundBlur_1289_325185" result="shape"/>
    </filter>
  </defs>
</svg>
