<svg width="48" height="48" viewBox="0 0 48 48" fill="none" xmlns="http://www.w3.org/2000/svg">
<rect width="48" height="48" fill="#3491FA"/>
<path d="M11.4663 17L8 35H11.3641L14 21.317L11.4663 17V17Z" fill="white"/>
<path d="M30.4925 22.5384L28 35H31.5978L35 18L30.4925 22.5384V22.5384Z" fill="white"/>
<path d="M34.2028 12L21.999 24.0321C21.8474 24.181 21.639 24.2524 21.4308 24.2267C21.2227 24.201 21.0366 24.0808 20.9236 23.8991L16.4003 16.6675C16.2168 16.3728 15.9005 16.1939 15.5602 16.1927H11L11.1015 16.3494V16.3494L20.1113 30.7651C20.1896 30.893 20.3197 30.9778 20.4655 30.9963C20.6114 31.0147 20.7575 30.9647 20.8636 30.8601L40 12H34.2028Z" fill="white"/>
</svg>
