<svg width="44" height="44" viewBox="0 0 44 44" fill="none" xmlns="http://www.w3.org/2000/svg">
<g clip-path="url(#clip0_3507_29703)">
<path fill-rule="evenodd" clip-rule="evenodd" d="M21.7646 4.1764C21.9048 4.07454 22.0946 4.07454 22.2348 4.1764L40.4634 17.4202C40.6011 17.5202 40.6604 17.6964 40.6113 17.8593L34.0495 39.6155C33.9986 39.7844 33.843 39.9 33.6665 39.9H10.3332C10.1568 39.9 10.0012 39.7844 9.95025 39.6155L3.38816 17.8593C3.33902 17.6964 3.39834 17.5202 3.53601 17.4202L21.7646 4.1764ZM4.23614 17.9004L10.6304 39.1H33.3694L39.7633 17.9004L21.9997 4.99443L4.23614 17.9004Z" fill="#7B4EFA" fill-opacity="0.12"/>
<path fill-rule="evenodd" clip-rule="evenodd" d="M27.5702 32.5323C27.7365 32.3869 27.9892 32.4037 28.1346 32.57L33.968 39.2366C34.1134 39.4029 34.0966 39.6556 33.9303 39.8011C33.7641 39.9465 33.5114 39.9297 33.3659 39.7634L27.5326 33.0968C27.3871 32.9305 27.4039 32.6778 27.5702 32.5323Z" fill="#7B4EFA" fill-opacity="0.12"/>
<path fill-rule="evenodd" clip-rule="evenodd" d="M16.4303 32.5323C16.5966 32.6778 16.6134 32.9305 16.468 33.0968L10.6346 39.7634C10.4892 39.9297 10.2365 39.9465 10.0702 39.8011C9.90394 39.6556 9.8871 39.4029 10.0326 39.2366L15.8659 32.57C16.0114 32.4037 16.2641 32.3869 16.4303 32.5323Z" fill="#7B4EFA" fill-opacity="0.12"/>
<path fill-rule="evenodd" clip-rule="evenodd" d="M3.28358 17.7184C3.34706 17.5068 3.57005 17.3867 3.78165 17.4502L12.115 19.9502C12.3266 20.0137 12.4467 20.2367 12.3832 20.4483C12.3197 20.6599 12.0967 20.7799 11.8851 20.7165L3.55177 18.2165C3.34017 18.153 3.2201 17.93 3.28358 17.7184Z" fill="#7B4EFA" fill-opacity="0.12"/>
<path fill-rule="evenodd" clip-rule="evenodd" d="M40.7184 17.7247C40.7784 17.9373 40.6547 18.1583 40.442 18.2183L28.5087 21.585C28.2961 21.645 28.0751 21.5212 28.0151 21.3086C27.9551 21.096 28.0789 20.875 28.2915 20.815L40.2248 17.4484C40.4374 17.3884 40.6584 17.5121 40.7184 17.7247Z" fill="#7B4EFA" fill-opacity="0.12"/>
<path fill-rule="evenodd" clip-rule="evenodd" d="M21.9996 4.09998C22.2205 4.09998 22.3996 4.27906 22.3996 4.49998V12.8333C22.3996 13.0542 22.2205 13.2333 21.9996 13.2333C21.7787 13.2333 21.5996 13.0542 21.5996 12.8333V4.49998C21.5996 4.27906 21.7787 4.09998 21.9996 4.09998Z" fill="#7B4EFA" fill-opacity="0.12"/>
<path d="M22 12.8333L27.0061 16.6422L28.4 21.2L27.8333 32.8333H16.1667L12 20.3333L16.9939 16.6422L22 12.8333Z" fill="#7B4EFA" fill-opacity="0.12" stroke="#7B4EFA" stroke-linejoin="round"/>
</g>
<defs>
<clipPath id="clip0_3507_29703">
<rect width="44" height="44" fill="white" transform="translate(44 1.90735e-06) rotate(90)"/>
</clipPath>
</defs>
</svg>
