<svg width="66" height="66" viewBox="0 0 66 66" fill="none" xmlns="http://www.w3.org/2000/svg">
<path d="M8.04237 17.1424L4.89992 26.2591H3L6.95877 15.7409H8.1724L8.04237 17.1424ZM10.6719 26.2591L7.52224 17.1424L7.38499 15.7409H8.60585L12.5791 26.2591H10.6719ZM10.5202 22.3581V23.7957H4.79878V22.3581H10.5202Z" fill="#CBBBFA"/>
<path d="M18.0234 21.5057H15.3433L15.3289 20.1837H17.6694C18.0644 20.1837 18.3991 20.1259 18.6736 20.0103C18.9529 19.8899 19.1648 19.7189 19.3093 19.4974C19.4538 19.271 19.526 18.9989 19.526 18.6811C19.526 18.3295 19.4586 18.043 19.3237 17.8214C19.1889 17.5999 18.9818 17.4386 18.7025 17.3374C18.428 17.2363 18.0764 17.1857 17.6478 17.1857H15.8923V26.2591H14.0791V15.7409H17.6478C18.2257 15.7409 18.741 15.7963 19.1937 15.9071C19.6512 16.0178 20.0389 16.1912 20.3568 16.4272C20.6795 16.6584 20.9227 16.9521 21.0864 17.3085C21.255 17.6649 21.3393 18.0887 21.3393 18.5799C21.3393 19.0134 21.2357 19.4107 21.0286 19.7719C20.8215 20.1283 20.5157 20.4197 20.1112 20.646C19.7066 20.8724 19.2033 21.0072 18.6013 21.0506L18.0234 21.5057ZM17.944 26.2591H14.7726L15.5889 24.8215H17.944C18.3533 24.8215 18.6953 24.7541 18.9698 24.6192C19.2443 24.4796 19.449 24.2893 19.5838 24.0485C19.7235 23.8029 19.7933 23.5164 19.7933 23.1889C19.7933 22.8469 19.7331 22.5508 19.6127 22.3003C19.4923 22.0451 19.3021 21.85 19.042 21.7152C18.7819 21.5755 18.4424 21.5057 18.0234 21.5057H15.9862L16.0007 20.1837H18.6519L19.0637 20.6821C19.6416 20.7014 20.116 20.829 20.4868 21.065C20.8625 21.301 21.1418 21.6068 21.3248 21.9825C21.5078 22.3581 21.5993 22.7627 21.5993 23.1961C21.5993 23.8655 21.4524 24.4266 21.1586 24.8793C20.8697 25.332 20.4531 25.6764 19.9089 25.9123C19.3647 26.1435 18.7097 26.2591 17.944 26.2591Z" fill="#CBBBFA"/>
<path d="M29.6446 22.8349H31.4506C31.3928 23.5236 31.2002 24.1376 30.8727 24.677C30.5452 25.2116 30.0852 25.633 29.4929 25.9412C28.9005 26.2495 28.1805 26.4036 27.3329 26.4036C26.6827 26.4036 26.0976 26.288 25.5775 26.0568C25.0573 25.8208 24.6118 25.4885 24.241 25.0599C23.8702 24.6265 23.586 24.1039 23.3886 23.4923C23.1959 22.8807 23.0996 22.1968 23.0996 21.4407V20.5666C23.0996 19.8105 23.1983 19.1266 23.3958 18.5149C23.5981 17.9033 23.887 17.3808 24.2627 16.9473C24.6383 16.5091 25.0886 16.1744 25.6136 15.9432C26.1433 15.712 26.7381 15.5964 27.3979 15.5964C28.2359 15.5964 28.9438 15.7505 29.5218 16.0588C30.0997 16.367 30.5476 16.7932 30.8654 17.3374C31.1881 17.8816 31.3856 18.5053 31.4578 19.2084H29.6518C29.6036 18.7557 29.4977 18.3681 29.3339 18.0454C29.175 17.7227 28.939 17.4771 28.626 17.3085C28.313 17.1352 27.9036 17.0485 27.3979 17.0485C26.9837 17.0485 26.6225 17.1255 26.3143 17.2796C26.0061 17.4337 25.7484 17.6601 25.5413 17.9587C25.3342 18.2573 25.1777 18.6257 25.0718 19.064C24.9706 19.4974 24.9201 19.9935 24.9201 20.5521V21.4407C24.9201 21.9704 24.9658 22.452 25.0573 22.8855C25.1536 23.3141 25.2981 23.6825 25.4908 23.9908C25.6882 24.299 25.9387 24.5374 26.2421 24.7059C26.5455 24.8745 26.9091 24.9588 27.3329 24.9588C27.8482 24.9588 28.2648 24.8769 28.5826 24.7132C28.9053 24.5494 29.1485 24.311 29.3123 23.998C29.4808 23.6801 29.5916 23.2924 29.6446 22.8349Z" fill="#CBBBFA"/>
<rect x="3" y="38.4036" width="60" height="12" rx="3" fill="#7B4EFA" fill-opacity="0.12"/>
<rect x="3" y="38.4036" width="24" height="12" rx="3" fill="#7B4EFA"/>
</svg>
