<svg width="44" height="44" viewBox="0 0 44 44" fill="none" xmlns="http://www.w3.org/2000/svg">
<path d="M2 18.8502L8.24118 16.7214C13.1554 15.0453 18.5931 16.2027 22.3987 19.7349V19.7349C25.1288 22.2688 29.1942 22.7213 32.4146 20.8496L42 15.2788" stroke="#7B4EFA"/>
<path fill-rule="evenodd" clip-rule="evenodd" d="M2.09258 42L2 19.4918L2 18.7365L8.89213 16.6261C13.5689 15.194 18.5789 16.2488 22.4598 19.4826L22.7478 19.7226C25.3497 21.8906 28.8163 22.2857 31.7601 20.7497L42 16.0026L42 42L32.0851 42C28.85 42 28.0855 42 22.2891 42L22.0011 42C16.618 42 4.76832 42 2.09258 42Z" fill="#7B4EFA" fill-opacity="0.12"/>
</svg>
