<?xml version="1.0" standalone="no"?><!DOCTYPE svg PUBLIC "-//W3C//DTD SVG 1.1//EN" "http://www.w3.org/Graphics/SVG/1.1/DTD/svg11.dtd"><svg t="1749450894709" class="icon" viewBox="0 0 1024 1024" version="1.1" xmlns="http://www.w3.org/2000/svg" p-id="11447" xmlns:xlink="http://www.w3.org/1999/xlink" width="200" height="200"><path d="M0 0m102.4 0l819.2 0q102.4 0 102.4 102.4l0 819.2q0 102.4-102.4 102.4l-819.2 0q-102.4 0-102.4-102.4l0-819.2q0-102.4 102.4-102.4Z" fill="#0F83C6" p-id="11448"></path><path d="M253.5424 522.8032c1.6384 3.5328 3.1232 7.1168 4.608 10.752a260.608 260.608 0 0 1 9.6256-21.2992l47.616-93.952a15.5136 15.5136 0 0 1 2.6624-3.7888 9.3696 9.3696 0 0 1 6.8096-2.6624h37.888v185.9584h-38.0416V490.752c0-5.2224 0.256-10.752 0.7168-16.8448l-49.2544 95.6416a16.5888 16.5888 0 0 1-6.144 6.8096 17.2544 17.2544 0 0 1-8.9088 2.2528h-5.8368a17.5104 17.5104 0 0 1-8.9088-2.2528 16.0256 16.0256 0 0 1-6.144-6.8096l-49.664-95.744c0.4096 3.072 0.5632 5.9904 0.768 8.9088 0.2048 2.9184 0.3072 5.632 0.3072 8.1408v106.9568H153.6V411.8528h37.8368c1.4336 0 2.6624 0.2048 3.7888 0.6656 1.1264 0.512 2.048 1.024 3.0208 1.9968a16.2816 16.2816 0 0 1 2.6624 3.7888l47.8208 94.464c1.6384 3.2256 3.328 6.5536 4.864 10.0352z m313.1904-18.0736a97.4848 97.4848 0 0 1-9.6256 43.776 85.6064 85.6064 0 0 1-11.5712 18.0224c-4.5568 5.5808-9.728 10.3936-15.5136 14.6432l47.104 51.456h-35.4816c-5.12 0-9.728-0.6656-13.8752-1.8944a22.9376 22.9376 0 0 1-11.1104-7.4752l-23.04-25.9072a122.1632 122.1632 0 0 1-23.3472 2.4576c-14.4896 0-27.7504-2.4576-39.68-7.3216a88.7296 88.7296 0 0 1-50.176-50.2784 100.096 100.096 0 0 1-7.0144-37.5808c0-13.4144 2.3552-25.9072 7.0144-37.5296a89.088 89.088 0 0 1 50.176-50.176A104.448 104.448 0 0 1 470.2208 409.6c14.4896 0 27.648 2.4576 39.5776 7.3728a89.3952 89.3952 0 0 1 50.0224 50.3296c4.608 11.52 6.912 24.0128 6.912 37.4272z m-44.1856 0c0-9.1648-1.2288-17.4592-3.584-24.8832a51.3024 51.3024 0 0 0-10.3424-18.688 44.4416 44.4416 0 0 0-16.384-11.776 55.9616 55.9616 0 0 0-22.0672-4.0448c-8.3456 0-15.8208 1.3312-22.3232 4.096a44.032 44.032 0 0 0-16.4864 11.7248c-4.4544 5.12-7.8336 11.3152-10.2912 18.688-2.3552 7.424-3.584 15.616-3.584 24.8832s1.2288 17.6128 3.584 24.9856c2.3552 7.3728 5.7856 13.6192 10.2912 18.7392a44.032 44.032 0 0 0 16.4864 11.7248c6.5024 2.6112 13.8752 4.096 22.3232 4.096 8.192 0 15.5648-1.3824 22.1184-4.096a43.4176 43.4176 0 0 0 16.384-11.776c4.4032-5.0688 7.8336-11.3152 10.24-18.688a78.848 78.848 0 0 0 3.6352-24.9856z m182.7328-92.9792v34.304h-50.432v151.7568h-43.1104V445.952h-50.432v-34.2528h143.9744z m165.12 0v34.304h-52.2752v151.7568h-43.1616V445.952h-50.3808v-34.2528H870.4z" fill="#FFFFFF" p-id="11449"></path></svg>