<svg width="44" height="44" viewBox="0 0 44 44" fill="none" xmlns="http://www.w3.org/2000/svg">
<path d="M36.6667 20.9815H7.33333C6.32081 20.9815 5.5 19.969 5.5 20.9815V36.6667C5.5 37.6792 6.32081 38.5 7.33333 38.5H36.6667C37.6792 38.5 38.5 37.6792 38.5 36.6667V20.9815C38.5 19.969 37.6792 20.9815 36.6667 20.9815Z" fill="#7B4EFA" fill-opacity="0.12"/>
<path d="M36.6667 11H7.33333C6.32081 11 5.5 11.8208 5.5 12.8333V36.6667C5.5 37.6792 6.32081 38.5 7.33333 38.5H36.6667C37.6792 38.5 38.5 37.6792 38.5 36.6667V12.8333C38.5 11.8208 37.6792 11 36.6667 11Z" stroke="#7B4EFA" stroke-linejoin="round"/>
<path d="M5.5 11.9167L11.9167 4.58334H32.0833L38.5 11.9167" stroke="#7B4EFA" stroke-linecap="round" stroke-linejoin="round"/>
</svg>
