<svg width="44" height="44" viewBox="0 0 44 44" fill="none" xmlns="http://www.w3.org/2000/svg">
<path d="M17.791 13.3771H18.9951C18.9565 13.8363 18.8281 14.2456 18.6098 14.6052C18.3914 14.9616 18.0848 15.2426 17.6899 15.448C17.295 15.6535 16.815 15.7563 16.2499 15.7563C15.8165 15.7563 15.4264 15.6792 15.0796 15.5251C14.7329 15.3678 14.4359 15.1462 14.1887 14.8605C13.9414 14.5715 13.752 14.2232 13.6204 13.8154C13.4919 13.4076 13.4277 12.9517 13.4277 12.4477V11.8649C13.4277 11.3608 13.4936 10.9049 13.6252 10.4972C13.76 10.0894 13.9527 9.74105 14.2031 9.45209C14.4535 9.15992 14.7537 8.93678 15.1037 8.78266C15.4569 8.62855 15.8534 8.55149 16.2933 8.55149C16.8519 8.55149 17.3239 8.65424 17.7092 8.85972C18.0945 9.0652 18.3931 9.34935 18.605 9.71216C18.8201 10.075 18.9517 10.4907 18.9999 10.9595H17.7959C17.7638 10.6577 17.6931 10.3992 17.584 10.1841C17.478 9.96901 17.3207 9.80526 17.112 9.69289C16.9033 9.57731 16.6304 9.51951 16.2933 9.51951C16.0171 9.51951 15.7763 9.57089 15.5709 9.67363C15.3654 9.77637 15.1936 9.92727 15.0555 10.1263C14.9175 10.3254 14.8131 10.571 14.7425 10.8632C14.6751 11.1521 14.6414 11.4828 14.6414 11.8553V12.4477C14.6414 12.8008 14.6719 13.1219 14.7329 13.4109C14.7971 13.6966 14.8934 13.9422 15.0218 14.1477C15.1535 14.3532 15.3204 14.5121 15.5227 14.6245C15.725 14.7369 15.9674 14.7931 16.2499 14.7931C16.5935 14.7931 16.8712 14.7385 17.0831 14.6293C17.2982 14.5201 17.4603 14.3612 17.5695 14.1525C17.6819 13.9406 17.7557 13.6822 17.791 13.3771Z" fill="#CBBBFA"/>
<path d="M9.92447 12.491H8.13773L8.12809 11.6097H9.68848C9.95176 11.6097 10.1749 11.5711 10.3579 11.4941C10.5441 11.4138 10.6854 11.2998 10.7817 11.1521C10.878 11.0012 10.9262 10.8198 10.9262 10.6079C10.9262 10.3736 10.8813 10.1825 10.7914 10.0348C10.7015 9.88713 10.5634 9.77958 10.3772 9.71215C10.1942 9.64473 9.95979 9.61102 9.67404 9.61102H8.50374V15.6599H7.29492V8.64781H9.67404C10.0593 8.64781 10.4029 8.68474 10.7047 8.75858C11.0097 8.83243 11.2681 8.94801 11.48 9.10533C11.6952 9.25945 11.8573 9.4553 11.9665 9.69289C12.0788 9.93048 12.135 10.213 12.135 10.5405C12.135 10.8295 12.066 11.0944 11.9279 11.3352C11.7899 11.5727 11.586 11.767 11.3163 11.9179C11.0466 12.0688 10.7111 12.1587 10.3098 12.1876L9.92447 12.491ZM9.87149 15.6599H7.75726L8.30147 14.7015H9.87149C10.1444 14.7015 10.3724 14.6566 10.5554 14.5667C10.7384 14.4736 10.8748 14.3468 10.9647 14.1862C11.0578 14.0225 11.1044 13.8315 11.1044 13.6131C11.1044 13.3852 11.0643 13.1877 10.984 13.0208C10.9037 12.8506 10.7769 12.7206 10.6035 12.6307C10.4302 12.5376 10.2038 12.491 9.92447 12.491H8.56635L8.57598 11.6097H10.3435L10.618 11.942C11.0033 11.9548 11.3195 12.0399 11.5667 12.1972C11.8172 12.3545 12.0034 12.5584 12.1254 12.8089C12.2474 13.0593 12.3084 13.329 12.3084 13.6179C12.3084 14.0642 12.2105 14.4383 12.0146 14.7401C11.822 15.0419 11.5443 15.2714 11.1814 15.4288C10.8186 15.5829 10.382 15.6599 9.87149 15.6599Z" fill="#CBBBFA"/>
<path d="M3.36158 9.58212L1.26661 15.6599H0L2.63918 8.64781H3.44827L3.36158 9.58212ZM5.11461 15.6599L3.01483 9.58212L2.92332 8.64781H3.73723L6.38604 15.6599H5.11461ZM5.01348 13.0593V14.0177H1.19919V13.0593H5.01348Z" fill="#CBBBFA"/>
<path d="M27.0693 26.7066V26.1056C27.0693 25.6737 27.163 25.2809 27.3503 24.927C27.5377 24.5732 27.8108 24.2896 28.1699 24.0763C28.5289 23.8629 28.9608 23.7563 29.4655 23.7563C29.9859 23.7563 30.423 23.8629 30.7768 24.0763C31.1359 24.2896 31.4091 24.5732 31.5964 24.927C31.7837 25.2809 31.8774 25.6737 31.8774 26.1056V26.7066C31.8774 27.1281 31.7837 27.5158 31.5964 27.8696C31.4143 28.2235 31.1437 28.5071 30.7846 28.7204C30.4308 28.9337 29.9963 29.0404 29.4812 29.0404C28.9712 29.0404 28.5341 28.9337 28.1699 28.7204C27.8108 28.5071 27.5377 28.2235 27.3503 27.8696C27.163 27.5158 27.0693 27.1281 27.0693 26.7066ZM28.3728 26.1056V26.7066C28.3728 26.9148 28.4118 27.1125 28.4899 27.2998C28.5731 27.4872 28.698 27.6381 28.8645 27.7525C29.0311 27.867 29.2366 27.9243 29.4812 27.9243C29.7309 27.9243 29.9339 27.867 30.09 27.7525C30.2513 27.6381 30.371 27.4872 30.449 27.2998C30.5271 27.1125 30.5661 26.9148 30.5661 26.7066V26.1056C30.5661 25.8923 30.5245 25.692 30.4412 25.5046C30.3631 25.3121 30.2435 25.1586 30.0822 25.0441C29.9209 24.9296 29.7153 24.8724 29.4655 24.8724C29.2262 24.8724 29.0232 24.9296 28.8567 25.0441C28.6954 25.1586 28.5731 25.3121 28.4899 25.5046C28.4118 25.692 28.3728 25.8923 28.3728 26.1056ZM32.5486 33.1069V32.4981C32.5486 32.0714 32.6423 31.6812 32.8296 31.3273C33.0221 30.9735 33.2979 30.6899 33.657 30.4766C34.016 30.2632 34.4479 30.1566 34.9526 30.1566C35.473 30.1566 35.9101 30.2632 36.2639 30.4766C36.623 30.6899 36.8935 30.9735 37.0757 31.3273C37.263 31.6812 37.3566 32.0714 37.3566 32.4981V33.1069C37.3566 33.5336 37.263 33.9239 37.0757 34.2777C36.8935 34.6316 36.6256 34.9152 36.2717 35.1285C35.9179 35.3418 35.4834 35.4485 34.9682 35.4485C34.4583 35.4485 34.0212 35.3418 33.657 35.1285C33.2979 34.9152 33.0221 34.6316 32.8296 34.2777C32.6423 33.9239 32.5486 33.5336 32.5486 33.1069ZM33.8599 32.4981V33.1069C33.8599 33.3151 33.9015 33.5128 33.9848 33.7001C34.0732 33.8875 34.2007 34.041 34.3672 34.1606C34.5337 34.2751 34.7341 34.3324 34.9682 34.3324C35.2336 34.3324 35.447 34.2751 35.6083 34.1606C35.7696 34.041 35.8841 33.8901 35.9517 33.7079C36.0245 33.5206 36.061 33.3203 36.061 33.1069V32.4981C36.061 32.2848 36.0193 32.0845 35.9361 31.8971C35.858 31.7098 35.7358 31.5589 35.5692 31.4444C35.4079 31.3299 35.2024 31.2727 34.9526 31.2727C34.7081 31.2727 34.5051 31.3299 34.3438 31.4444C34.1825 31.5589 34.0602 31.7098 33.977 31.8971C33.8989 32.0845 33.8599 32.2848 33.8599 32.4981ZM35.4209 25.5437L29.8714 34.426L28.9114 33.8719L34.4609 24.9895L35.4209 25.5437Z" fill="#7B4EFA"/>
<path d="M20.151 28.7516H21.275C21.7121 28.7516 22.0737 28.6762 22.3599 28.5252C22.6513 28.3743 22.8673 28.1662 23.0078 27.9008C23.1482 27.6355 23.2185 27.331 23.2185 26.9876C23.2185 26.6286 23.1535 26.3216 23.0234 26.0666C22.8985 25.8064 22.7059 25.6061 22.4458 25.4656C22.1908 25.3251 21.8656 25.2549 21.4701 25.2549C21.1371 25.2549 20.8353 25.3225 20.5647 25.4578C20.2993 25.5879 20.0886 25.7752 19.9325 26.0198C19.7764 26.2591 19.6983 26.5453 19.6983 26.8783H17.8095C17.8095 26.2747 17.9682 25.7388 18.2856 25.2705C18.603 24.8021 19.0349 24.4353 19.5813 24.1699C20.1328 23.8993 20.752 23.7641 21.4389 23.7641C22.1726 23.7641 22.8126 23.8863 23.359 24.1309C23.9106 24.3703 24.3398 24.7293 24.6469 25.208C24.9539 25.6867 25.1074 26.2799 25.1074 26.9876C25.1074 27.3102 25.0319 27.6381 24.881 27.9711C24.7301 28.3041 24.5064 28.6085 24.2098 28.8843C23.9132 29.1549 23.5437 29.376 23.1014 29.5477C22.6591 29.7142 22.1466 29.7975 21.5638 29.7975H20.151V28.7516ZM20.151 30.219V29.1887H21.5638C22.2298 29.1887 22.797 29.2667 23.2653 29.4229C23.7388 29.579 24.1239 29.7949 24.4205 30.0707C24.7171 30.3413 24.933 30.6509 25.0683 30.9995C25.2088 31.3481 25.2791 31.7176 25.2791 32.1079C25.2791 32.6386 25.1828 33.1121 24.9903 33.5284C24.803 33.9395 24.535 34.2881 24.1863 34.5743C23.8377 34.8605 23.4292 35.0764 22.9609 35.2221C22.4978 35.3678 21.9931 35.4407 21.4467 35.4407C20.9576 35.4407 20.4893 35.373 20.0418 35.2378C19.5943 35.1025 19.1936 34.9021 18.8398 34.6368C18.4859 34.3662 18.2049 34.0305 17.9968 33.6299C17.7939 33.224 17.6924 32.7557 17.6924 32.2249H19.5734C19.5734 32.5632 19.6515 32.8624 19.8076 33.1225C19.9689 33.3775 20.1927 33.5778 20.4789 33.7235C20.7702 33.8692 21.1033 33.9421 21.4779 33.9421C21.8734 33.9421 22.2142 33.8718 22.5004 33.7313C22.7866 33.5909 23.0052 33.3827 23.1561 33.1069C23.3122 32.8311 23.3902 32.4981 23.3902 32.1079C23.3902 31.6656 23.3044 31.3065 23.1326 31.0307C22.9609 30.7549 22.7164 30.552 22.3989 30.4219C22.0815 30.2866 21.7069 30.219 21.275 30.219H20.151Z" fill="#7B4EFA"/>
<path d="M16.355 33.786V35.2846H8.7371V33.9967L12.4368 29.9614C12.8427 29.5035 13.1627 29.108 13.3968 28.775C13.631 28.442 13.7949 28.1428 13.8886 27.8774C13.9874 27.6068 14.0369 27.3441 14.0369 27.0891C14.0369 26.73 13.9692 26.4152 13.8339 26.1447C13.7038 25.8689 13.5113 25.6529 13.2563 25.4968C13.0014 25.3355 12.6918 25.2549 12.3275 25.2549C11.906 25.2549 11.5522 25.3459 11.266 25.528C10.9798 25.7102 10.7639 25.9625 10.6182 26.2851C10.4725 26.6026 10.3996 26.9668 10.3996 27.3779H8.51855C8.51855 26.717 8.66946 26.1134 8.97126 25.5671C9.27306 25.0155 9.71015 24.5784 10.2825 24.2558C10.8549 23.928 11.5444 23.7641 12.3509 23.7641C13.1106 23.7641 13.7559 23.8915 14.2866 24.1465C14.8174 24.4015 15.2207 24.7631 15.4964 25.2314C15.7774 25.6998 15.9179 26.2539 15.9179 26.894C15.9179 27.2478 15.8607 27.599 15.7462 27.9477C15.6317 28.2963 15.4678 28.6449 15.2545 28.9936C15.0463 29.337 14.7992 29.683 14.513 30.0317C14.2268 30.3751 13.912 30.7237 13.5685 31.0776L11.1099 33.786H16.355Z" fill="#7B4EFA"/>
<path d="M4.66753 23.8811V35.2846H2.78647V26.1134L0 27.0579V25.5046L4.44118 23.8811H4.66753Z" fill="#7B4EFA"/>
</svg>
