<svg width="44" height="44" viewBox="0 0 44 44" fill="none" xmlns="http://www.w3.org/2000/svg">
<path d="M39.9391 22.102C39.9383 25.6548 38.8841 29.1275 36.9097 32.081C34.9352 35.0346 32.1293 37.3364 28.8467 38.6952C25.5641 40.0541 21.9523 40.4091 18.468 39.7152C14.9837 39.0214 11.7834 37.3099 9.27174 34.7972C6.76012 32.2845 5.05 29.0834 4.35763 25.5988C3.66527 22.1142 4.02177 18.5025 5.38204 15.2205C6.74231 11.9385 9.04526 9.1336 11.9997 7.16044C14.9541 5.18728 18.4273 4.13452 21.98 4.13527L21.9762 22.0982L39.9391 22.102Z" fill="#DDD2FC"/>
<path d="M22.9789 4.06483C25.3378 4.05718 26.6751 4.51422 28.8574 5.40987C31.0397 6.30552 33.0242 7.62223 34.6976 9.28483C36.371 10.9474 37.7006 12.9233 38.6104 15.0998C39.5201 17.2762 39.9923 18.6105 40 20.9694L23.0372 21.0277L22.9789 4.06483Z" fill="#7B4EFA"/>
</svg>
