<svg width="44" height="44" viewBox="0 0 44 44" fill="none" xmlns="http://www.w3.org/2000/svg">
<path d="M22.2492 6.73468C12.3306 6.73468 4.29004 14.7753 4.29004 24.6939C4.29004 29.3903 5.82864 34.0651 8.77983 37.2653H35.7186C38.6698 34.0651 40.2084 29.3903 40.2084 24.6939C40.2084 14.7753 32.1678 6.73468 22.2492 6.73468Z" fill="#7B4EFA" fill-opacity="0.08"/>
<path d="M22.2491 30.9796C24.2328 30.9796 25.8409 29.3715 25.8409 27.3877C25.8409 25.404 24.2328 23.7959 22.2491 23.7959C20.2653 23.7959 18.6572 25.404 18.6572 27.3877C18.6572 29.3715 20.2653 30.9796 22.2491 30.9796Z" fill="#7B4EFA" stroke="#7B4EFA" stroke-linecap="round" stroke-linejoin="round"/>
<path d="M22.249 18.4081V23.7959" stroke="#7B4EFA" stroke-linecap="round" stroke-linejoin="round"/>
<path d="M22.249 11.2245V13.0204" stroke="#7B4EFA" stroke-linecap="round" stroke-linejoin="round"/>
<path d="M8.78027 25.5918H10.5762" stroke="#7B4EFA" stroke-linecap="round" stroke-linejoin="round"/>
<path d="M12.3721 16.6122L13.642 17.8821" stroke="#7B4EFA" stroke-linecap="round" stroke-linejoin="round"/>
<path d="M33.9229 25.5918H35.7188" stroke="#7B4EFA" stroke-linecap="round" stroke-linejoin="round"/>
<path d="M31.2295 17.882L32.4994 16.6121" stroke="#7B4EFA" stroke-linecap="round" stroke-linejoin="round"/>
</svg>
